<svg id="light" enable-background="new 0 0 24 24" height="512" viewBox="0 0 24 24" width="512" xmlns="http://www.w3.org/2000/svg"><path d="m12 24c-6.617 0-12-5.383-12-12s5.383-12 12-12c3.954 0 7.656 1.953 9.903 5.224.156.228.099.539-.129.695-.228.157-.538.099-.695-.129-2.06-2.999-5.454-4.79-9.079-4.79-6.065 0-11 4.935-11 11s4.935 11 11 11 11-4.935 11-11c0-.276.224-.5.5-.5s.5.224.5.5c0 6.617-5.383 12-12 12z" fill="#4B0082"/><path d="m21.5 6h-5c-.276 0-.5-.224-.5-.5s.224-.5.5-.5h4.5v-4.5c0-.276.224-.5.5-.5s.5.224.5.5v5c0 .276-.224.5-.5.5z" fill="#4B0082"/><path d="m13 18h-2c-.481 0-1-.369-1-1.18v-1.32c0-.586-.253-1.122-.676-1.433-1.17-.862-1.852-2.239-1.823-3.683.046-2.381 2.033-4.349 4.432-4.384 1.26-.002 2.371.443 3.237 1.298.857.846 1.33 1.974 1.33 3.175 0 1.401-.675 2.74-1.807 3.581-.433.323-.693.866-.693 1.453v1.493c0 .552-.448 1-1 1zm-1.002-11c-.017 0-.033 0-.051 0-1.833.027-3.412 1.586-3.446 3.404-.022 1.12.507 2.188 1.416 2.857.678.499 1.083 1.336 1.083 2.239v1.32c0 .149.036.198.036.198l1.964-.018v-1.493c0-.901.41-1.744 1.097-2.256.892-.662 1.403-1.675 1.403-2.778 0-.932-.367-1.807-1.033-2.463-.661-.653-1.536-1.01-2.469-1.01z" fill="#4B0082"/><path d="m13.5 16h-3c-.276 0-.5-.224-.5-.5s.224-.5.5-.5h3c.276 0 .5.224.5.5s-.224.5-.5.5z" fill="#4B0082"/></svg>
